<svg xmlns="http://www.w3.org/2000/svg" xmlns:xlink="http://www.w3.org/1999/xlink" viewBox="0 0 56 56" width="56" height="56" preserveAspectRatio="xMidYMid meet" style="width: 100%; height: 100%; transform: translate3d(0px, 0px, 0px); content-visibility: visible;"><defs><clipPath id="__lottie_element_10"><rect width="56" height="56" x="0" y="0"></rect></clipPath><g id="__lottie_element_14"><g transform="matrix(-0.9399999976158142,0,0,-0.9399999976158142,28.5,28)" opacity="1" style="display: block;"><g opacity="1" transform="matrix(1,0,0,1,0,0)"><path fill="rgb(255,0,0)" fill-opacity="1" d=" M0,-27 C14.901300430297852,-27 27,-14.901300430297852 27,0 C27,14.901300430297852 14.901300430297852,27 0,27 C-14.901300430297852,27 -27,14.901300430297852 -27,0 C-27,-14.901300430297852 -14.901300430297852,-27 0,-27z"></path></g><g opacity="1" transform="matrix(1,0,0,1,0,0)"><path stroke="url(#__lottie_element_17)" stroke-linecap="butt" stroke-linejoin="miter" fill-opacity="0" stroke-miterlimit="4" stroke-opacity="1" stroke-width="1" d="M0 0"></path></g></g></g><linearGradient id="__lottie_element_17" spreadMethod="pad" gradientUnits="userSpaceOnUse" x1="0" y1="0" x2="100" y2="0"><stop offset="0%" stop-color="rgb(255,255,255)"></stop><stop offset="100%" stop-color="rgb(0,0,0)"></stop></linearGradient><mask id="__lottie_element_14_1" mask-type="alpha"><use xlink:href="#__lottie_element_14"></use></mask></defs><g clip-path="url(#__lottie_element_10)"><g mask="url(#__lottie_element_14_1)" style="display: block;"><g class="scrollindicator arrow" transform="matrix(0,1,-1,0,41.5,15.054000854492188)" opacity="1"><g opacity="1" transform="matrix(1,0,0,1,0,0)"><path fill="rgb(255,255,255)" fill-opacity="1" d="M0 0"></path><path stroke-linecap="round" stroke-linejoin="round" fill-opacity="0" stroke="rgb(255,255,255)" stroke-opacity="1" stroke-width="1.5" d=" M13.5,0 C13.5,0 27,13.5 27,13.5 C27,13.5 13.5,27 13.5,27 M27,13.5 C27,13.5 0,13.5 0,13.5"></path></g></g></g><g mask="url(#__lottie_element_14_1)" style="display: none;"><g class="scrollindicator arrow"><g><path></path><path stroke-linecap="round" stroke-linejoin="round" fill-opacity="0"></path></g></g></g><g class="scrollindicator" transform="matrix(-1,0,0,-1,28.5,28)" opacity="1" style="display: block;"><g opacity="1" transform="matrix(1,0,0,1,0,0)"><path fill="rgb(255,255,255)" fill-opacity="1" d="M0 0"></path></g><g opacity="1" transform="matrix(1,0,0,1,0,0)"><path stroke-linecap="butt" stroke-linejoin="miter" fill-opacity="0" stroke-miterlimit="4" stroke="rgb(255,255,255)" stroke-opacity="1" stroke-width="1" d=" M-3.0616171314629196e-17,-26.5 C14.694193840026855,-26.5 26.5,-14.694193840026855 26.5,0 C26.5,14.694193840026855 14.694193840026855,26.5 -3.0616171314629196e-17,26.5 C-14.694193840026855,26.5 -26.5,14.694193840026855 -26.5,6.123234262925839e-17 C-26.5,-14.694193840026855 -14.694193840026855,-26.5 -3.0616171314629196e-17,-26.5 C-3.0616171314629196e-17,-26.5 -3.0616171314629196e-17,-26.5 -3.0616171314629196e-17,-26.5z"></path></g></g></g></svg>